<?xml version="1.0" encoding="UTF-8" standalone="no"?>
<svg
   xmlns:dc="http://purl.org/dc/elements/1.1/"
   xmlns:cc="http://creativecommons.org/ns#"
   xmlns:rdf="http://www.w3.org/1999/02/22-rdf-syntax-ns#"
   xmlns:svg="http://www.w3.org/2000/svg"
   xmlns="http://www.w3.org/2000/svg"
   xmlns:xlink="http://www.w3.org/1999/xlink"
   xmlns:sodipodi="http://sodipodi.sourceforge.net/DTD/sodipodi-0.dtd"
   xmlns:inkscape="http://www.inkscape.org/namespaces/inkscape"
   sodipodi:docname="logo.svg"
   inkscape:version="1.0 (4035a4fb49, 2020-05-01)"
   id="svg8"
   version="1.1"
   viewBox="0 0 20 20"
   height="20mm"
   width="20mm">
  <defs
     id="defs2">
    <linearGradient
       id="linearGradient915"
       inkscape:collect="always">
      <stop
         id="stop911"
         offset="0"
         style="stop-color:#20989d;stop-opacity:1" />
      <stop
         id="stop913"
         offset="1"
         style="stop-color:#2f2933;stop-opacity:1" />
    </linearGradient>
    <radialGradient
       gradientUnits="userSpaceOnUse"
       gradientTransform="matrix(0.26458333,0,0,0.26458583,0,0.06950405)"
       r="37.794919"
       fy="37.532229"
       fx="37.794919"
       cy="37.532229"
       cx="37.794919"
       id="radialGradient917"
       xlink:href="#linearGradient915"
       inkscape:collect="always" />
  </defs>
  <sodipodi:namedview
     inkscape:window-maximized="0"
     inkscape:window-y="23"
     inkscape:window-x="26"
     inkscape:window-height="1043"
     inkscape:window-width="1456"
     showgrid="false"
     inkscape:document-rotation="0"
     inkscape:current-layer="text835"
     inkscape:document-units="mm"
     inkscape:cy="-20.561421"
     inkscape:cx="152.77306"
     inkscape:zoom="1.482433"
     inkscape:pageshadow="2"
     inkscape:pageopacity="0.0"
     borderopacity="1.0"
     bordercolor="#666666"
     pagecolor="#ffffff"
     id="base" />
  <metadata
     id="metadata5">
    <rdf:RDF>
      <cc:Work
         rdf:about="">
        <dc:format>image/svg+xml</dc:format>
        <dc:type
           rdf:resource="http://purl.org/dc/dcmitype/StillImage" />
        <dc:title></dc:title>
      </cc:Work>
    </rdf:RDF>
  </metadata>
  <g
     id="layer1"
     inkscape:groupmode="layer"
     inkscape:label="Ebene 1">
    <g
       style="font-size:10.5833px;line-height:8.41375px;font-family:Manrope;-inkscape-font-specification:Manrope;letter-spacing:0px;word-spacing:0px;stroke-width:0.264583"
       id="text835"
       aria-label="B E M
DOC
G E N">
      <path
         sodipodi:nodetypes="ccccscsccccccccsscccscssccccccccsccsccsccccccscsccccsccccsccccsccccccccssscccscccsccccccscccccccccscscsscccccccccccccccccccsscccsccsccscccscscsccccssccccssccscc"
         d="M 0,0 V 13.336975 H 1.227832 C 0.87918892,13.601773 0.59994958,13.938949 0.39274088,14.350167 0.13095229,14.876363 0,15.789447 0,16.493117 c 0,0.706785 0.13276377,1.324824 0.39790851,1.854135 0.2685008,0.526198 0.65100669,0.932813 1.14773359,1.219265 0.4949318,0.285415 1.0800678,0.42829 1.7549315,0.429319 V 20 H 15.261601 c 0.002,-1.922408 0.0011,-3.874465 10e-4,-5.520776 l 3.992521,5.515572 h 0.744657 v -8.804934 l -0.432532,-0.104077 c -0.157746,0.544879 -0.439835,0.969815 -0.845943,1.274946 -0.406107,0.305133 -0.926295,0.45794 -1.560628,0.45794 -0.553782,0 -1.023247,-0.118271 -1.409216,-0.354904 -0.382613,-0.236631 -0.671951,-0.568416 -0.866614,-0.994978 -0.191316,-0.429675 -0.284967,-0.927875 -0.281637,-1.4945487 0.0068,-0.5697866 0.105834,-1.0679862 0.29714,-1.4945489 0.191307,-0.4265608 0.476503,-0.7583453 0.855761,-0.9949782 0.382614,-0.2366318 0.850784,-0.3543829 1.404566,-0.3543829 0.634333,0 1.154521,0.1522878 1.560628,0.4574194 0.406108,0.3051324 0.688197,0.7300675 0.845943,1.2749459 L 19.985342,8.7606998 V 0 H 19.295463 L 16.461011,5.6555559 13.611572,0 Z M 0.74666698,0.64892146 H 2.9739785 c 0.2416511,0 0.4582676,0.045006 0.6495728,0.13530039 0.1913061,0.0902934 0.3406338,0.21798395 0.4480348,0.38300415 0.107406,0.1619065 0.1607137,0.3471621 0.1607137,0.5557724 0,0.2179513 -0.056938,0.4141959 -0.1710491,0.5885566 C 3.9504937,2.485916 3.7998712,2.6230252 3.6085653,2.72266 3.4172583,2.8191819 3.2055617,2.8673274 2.9739785,2.8673274 H 0.74666698 Z m 3.84271692,0.009367 H 6.790283 V 7.174563 C 6.6557828,7.3426358 6.5384232,7.5280413 6.4394002,7.7308558 6.1809682,8.2570521 6.0518269,9.2799109 6.0518269,9.9742403 c 0,0.6943297 0.1291413,1.7619497 0.3875733,2.2912597 0.2584318,0.526196 0.6378319,0.935434 1.137915,1.228111 0.1227529,0.07184 0.2814418,0.134693 0.4609536,0.188901 V 19.34171 H 5.4255085 c 0.2979925,-0.237166 0.5342363,-0.527446 0.7069335,-0.872687 0.2416501,-0.479495 0.3622519,-1.027931 0.3622519,-1.64442 0,-0.136998 -0.00679,-0.268877 -0.020153,-0.396534 H 4.0276615 v 0.588556 H 5.6988773 C 5.6586082,17.75766 5.4437983,18.330173 5.0544724,18.73494 4.6651452,19.139711 4.0929393,19.340634 3.3377811,19.337547 2.7839971,19.334526 2.3140177,19.214593 1.9280477,18.977961 1.5454349,18.741329 1.2571307,18.410065 1.0624674,17.983503 0.87116043,17.556941 0.77876486,17.059791 0.78548176,16.493117 c 0.00672,-0.569787 0.1058327,-1.366168 0.29713944,-1.79273 0.1913071,-0.426562 0.4765032,-0.756776 0.8557618,-0.990295 0.379257,-0.236637 0.8456157,-0.353309 1.3993976,-0.35022 0.5202211,0 0.9632839,0.121411 1.329118,0.364271 0.3658319,0.239746 0.6313609,0.569961 0.7958169,0.990294 L 6.2073731,14.546352 C 6.0093529,13.967225 5.6641137,13.514032 5.1707438,13.187104 4.9691797,13.052625 4.7437746,12.947269 4.4979166,12.868107 c 0.06081,-0.04072 0.1208008,-0.08288 0.1777669,-0.129055 0.372545,-0.305132 0.6528245,-0.695531 0.8407755,-1.17191 0.1879481,-0.476378 0.2816368,-1.007547 0.2816365,-1.5929017 0,-0.5822394 -0.093686,-1.1118389 -0.2816365,-1.5882185 C 5.328508,7.9096424 5.0464158,7.5192451 4.670516,7.2141124 4.5733059,7.1344982 4.4706984,7.0632203 4.3625243,6.9997132 4.6700193,6.824252 4.9111905,6.579528 5.0834107,6.2623262 5.2612885,5.9310948 5.3505777,5.5436665 5.3505777,5.1008244 c 0,-0.4464422 -0.10585,-0.8365567 -0.3172931,-1.171389 C 4.8251953,3.591002 4.5296486,3.3335992 4.1470336,3.1571823 4.4088227,2.9951669 4.6156012,2.8203062 4.7666341,2.5681054 4.9210211,2.315905 4.9981445,2.0380172 4.9981445,1.7328857 c 0,-0.317586 -0.085665,-0.6090732 -0.2568319,-0.87372825 C 4.6960766,0.78781675 4.6446386,0.72144966 4.5893839,0.65828846 Z m 2.9403889,0 H 12.93151 V 7.2109901 C 12.708904,6.924641 12.436462,6.6864342 12.112439,6.4980612 11.612356,6.2053842 10.584054,6.0588552 9.8758829,6.0588552 c -0.0065,0 -0.014129,4.796e-4 -0.020672,5.329e-4 l -2.3254396,0.00728 V 3.6427026 H 10.716658 V 2.9844143 H 7.5297728 Z m 6.1117712,0.87320784 2.509925,5.0560712 c -0.292116,0.073109 -0.560064,0.1804287 -0.803052,0.3226396 -0.500083,0.292677 -0.879482,0.704005 -1.137915,1.2333149 -0.258432,0.5261963 -0.387573,1.136389 -0.387573,1.8307184 0,0.6943286 0.129141,1.3060916 0.387573,1.8354016 0.258433,0.526196 0.637832,0.935434 1.137915,1.228111 0.500083,0.292678 1.104121,0.439206 1.812292,0.439206 0.550427,0 1.038784,-0.08897 1.465027,-0.266438 0.231958,-0.09751 0.440515,-0.218512 0.629419,-0.359586 v 5.929799 l -3.992521,-5.511409 h -0.744657 v 6.086436 L 8.7782753,19.341711 V 16.917233 H 11.965161 V 16.259465 H 8.7782753 v -2.326126 l 1.0976076,-5.33e-4 c 0.7081711,0 1.7364731,-0.146529 2.2365561,-0.439206 0.503439,-0.292677 0.884651,-0.701915 1.143082,-1.228111 0.258432,-0.52931 0.387057,-1.596931 0.387057,-2.2912602 z m 5.638416,0 V 7.1194021 C 19.084183,6.9706942 18.868013,6.8440052 18.625736,6.7426427 18.198574,6.5639288 17.711135,6.4715216 17.160709,6.4715213 c -0.117799,0 -0.231607,0.00538 -0.343648,0.01353 z M 0.74666698,3.5724505 H 3.1656983 c 0.268501,0 0.5097026,0.070842 0.7245035,0.2117972 0.2148009,0.140957 0.3843131,0.3323533 0.5084961,0.5734655 0.1241851,0.241112 0.1865518,0.5078297 0.1865518,0.8008741 0,0.2967543 -0.069097,0.5544376 -0.2067057,0.7732938 C 4.2442931,6.1507362 4.0600275,6.3195154 3.8250894,6.4382166 3.5901505,6.5532039 3.3246284,6.6104646 3.0292725,6.6104646 H 0.74666698 Z M 9.8758829,6.7171438 c 0.5537831,0.00312 1.4462171,0.1234742 1.8288291,0.3601071 0.382614,0.2366329 0.669622,0.567897 0.860929,0.9944578 0.194663,0.4265609 0.291972,1.3358597 0.291972,1.9025316 0,0.5697867 -0.09731,1.5233237 -0.291972,1.9498867 -0.191307,0.426561 -0.478315,0.758346 -0.860929,0.994978 C 11.3221,13.155737 10.429666,13.274009 9.8758829,13.274008 9.3220999,13.270886 8.3658447,13.151055 7.9798745,12.914422 7.5972616,12.67779 7.3089584,12.346005 7.1142944,11.919443 6.9229893,11.492883 6.8305536,10.540914 6.8373087,9.9742403 6.8441085,9.4044537 6.9431412,8.4935869 7.1344482,8.0670253 7.3257563,7.6404633 7.6109527,7.30868 7.9902099,7.0720471 8.3694679,6.835415 9.3220999,6.7171436 9.8758829,6.7171438 Z M 0.76630401,7.2828033 H 2.8360026 c 0.154964,0.00926 0.2902968,0.023263 0.3994589,0.043192 0.6007719,0.099633 1.0474579,0.3864129 1.3394531,0.8596777 0.2919949,0.4732658 0.4376994,1.0693292 0.4376991,1.7885671 0,0.7161259 -0.1457042,1.3127089 -0.4376991,1.7890879 -0.288639,0.476379 -0.7353263,0.762637 -1.3394531,0.859157 -0.2047312,0.03736 -0.4899287,0.0562 -0.8557618,0.0562 H 0.76630401 Z"
         style="text-align:center;text-anchor:middle;fill:url(#radialGradient917);fill-opacity:1;stroke-width:0.242449"
         id="path881" />
    </g>
  </g>
</svg>
